<svg width="405" height="66" viewBox="0 0 405 66" fill="none" xmlns="http://www.w3.org/2000/svg">
<circle cx="33" cy="33" r="33" fill="black"/>
<circle cx="33" cy="33" r="30" fill="white"/>
<path d="M25 18.5C25 34 41.2843 34 33 34C24.7157 34 18 27.0604 18 18.5C18 9.93959 24.7157 3 33 3C41.2843 3 25 3 25 18.5Z" fill="#868686"/>
<path d="M48 48.2459C48 56.3944 41.3997 63 33.2579 63C25.116 63 41.6118 63 41.6118 48.2459C41.6118 33.4918 25.116 33 33.2579 33C41.3997 33 48 40.0974 48 48.2459Z" fill="#868686"/>
<path d="M41.141 18.5C41.141 34 25.1848 34 33.3022 34C41.4196 34 48 27.0604 48 18.5C48 9.93959 41.4196 3 33.3022 3C25.1848 3 41.141 3 41.141 18.5Z" fill="black"/>
<path d="M18 47.7541C18 56.1742 24.6003 63 32.7421 63C40.884 63 24.3882 63 24.3882 47.7541C24.3882 32.5082 40.884 32 32.7421 32C24.6003 32 18 39.334 18 47.7541Z" fill="black"/>
<path d="M93.966 23.52C93.966 25.4467 93.048 27.1013 91.212 28.484C89.376 29.8667 87.2793 30.558 84.922 30.558C82.5647 30.558 80.6607 29.98 79.21 28.824C77.782 27.6453 77.068 26.4327 77.068 25.186C77.068 23.9393 77.4193 23.316 78.122 23.316C78.666 23.316 79.2327 23.588 79.822 24.132C80.4113 24.676 81.0687 25.22 81.794 25.764C82.542 26.308 83.3807 26.58 84.31 26.58C85.2393 26.58 86.2933 26.1947 87.472 25.424C88.6507 24.6533 89.24 24.0073 89.24 23.486C89.24 22.9647 88.594 22.092 87.302 20.868C86.0327 19.644 84.752 18.386 83.46 17.094C82.1907 15.7793 81.556 14.7707 81.556 14.068C81.556 13.3427 81.6807 12.5607 81.93 11.722C82.202 10.8833 82.5307 10.3053 82.916 9.988C84.14 8.78667 85.7153 7.75533 87.642 6.894C89.5913 6.01 91.3027 5.568 92.776 5.568C93.6373 5.568 94.3513 5.942 94.918 6.69C95.4847 7.41533 95.768 8.17467 95.768 8.968C95.768 9.28533 95.5073 9.546 94.986 9.75C94.4873 9.93133 93.7507 10.124 92.776 10.328C91.824 10.532 90.8493 10.8267 89.852 11.212C87.54 12.0733 86.384 12.7987 86.384 13.388C86.384 13.66 86.7807 14.1587 87.574 14.884C88.3673 15.5867 89.2287 16.3347 90.158 17.128C91.11 17.8987 91.9827 18.8847 92.776 20.086C93.5693 21.2647 93.966 22.4093 93.966 23.52ZM111.06 20.936C111.468 21.2987 111.672 21.6273 111.672 21.922C111.672 22.2167 111.536 22.8287 111.264 23.758C110.992 24.6873 110.81 25.4127 110.72 25.934C110.629 26.4327 110.55 26.8293 110.482 27.124C110.436 27.4187 110.402 27.6567 110.38 27.838C110.357 27.9967 110.312 28.2007 110.244 28.45C110.198 28.6993 110.153 28.9033 110.108 29.062C110.085 29.198 110.04 29.368 109.972 29.572C109.926 29.7533 109.87 29.9007 109.802 30.014C109.734 30.1047 109.654 30.2067 109.564 30.32C109.428 30.5013 109.201 30.592 108.884 30.592C108.566 30.592 108.17 30.2747 107.694 29.64C107.24 29.0053 106.9 28.2347 106.674 27.328C104.543 29.504 102.752 30.592 101.302 30.592C100.327 30.592 99.2731 30.0593 98.1398 28.994C97.0064 27.906 96.4398 26.8293 96.4398 25.764C96.4398 24.676 96.9271 23.1347 97.9018 21.14C98.8764 19.1453 100.202 17.298 101.88 15.598C103.58 13.898 105.257 13.048 106.912 13.048C107.864 13.048 108.963 13.6033 110.21 14.714C111.456 15.8247 112.08 16.8447 112.08 17.774C112.08 18.6807 111.74 19.7347 111.06 20.936ZM101.166 26.308C102.072 26.308 103.274 25.696 104.77 24.472C106.288 23.2253 107.229 21.6613 107.592 19.78C107.614 19.508 107.807 19.3493 108.17 19.304C108.102 18.012 107.886 17.366 107.524 17.366C106.617 17.366 105.597 17.9553 104.464 19.134C103.353 20.3127 102.435 21.5707 101.71 22.908C101.007 24.2453 100.656 25.2313 100.656 25.866C100.656 26.0473 100.678 26.172 100.724 26.24C100.792 26.2853 100.939 26.308 101.166 26.308ZM126.454 13.048C127.632 13.048 128.664 13.5807 129.548 14.646C130.454 15.6887 130.908 16.8107 130.908 18.012C130.908 19.9387 130.59 21.956 129.956 24.064C129.344 26.1493 128.664 27.7587 127.916 28.892C127.19 30.0253 126.442 30.592 125.672 30.592C124.924 30.592 124.55 30.0593 124.55 28.994C124.55 28.178 124.924 26.5347 125.672 24.064C126.238 22.024 126.522 20.562 126.522 19.678C126.522 18.794 126.408 18.352 126.182 18.352C125.887 18.352 125.592 18.4993 125.298 18.794C125.026 19.0887 124.799 19.3493 124.618 19.576C124.436 19.8027 124.221 20.0973 123.972 20.46C123.745 20.8 123.541 21.1173 123.36 21.412C123.201 21.684 122.986 22.0467 122.714 22.5C122.464 22.9307 122.26 23.2933 122.102 23.588C121.943 23.86 121.739 24.2227 121.49 24.676C119.382 28.62 117.727 30.592 116.526 30.592C116.05 30.592 115.449 30.184 114.724 29.368C113.998 28.5293 113.636 27.9173 113.636 27.532C113.636 27.2827 113.794 26.75 114.112 25.934C114.452 25.0953 114.69 24.4607 114.826 24.03C114.984 23.5767 115.109 23.1007 115.2 22.602C115.313 22.1033 115.404 21.5707 115.472 21.004C115.54 20.4147 115.585 19.9613 115.608 19.644C115.653 19.3267 115.698 18.828 115.744 18.148C115.948 15.2013 116.118 13.5693 116.254 13.252C116.412 12.9347 116.582 12.776 116.764 12.776C117.625 12.776 118.452 13.1387 119.246 13.864C120.039 14.5667 120.436 15.2127 120.436 15.802C120.436 17.2073 120.073 19.2247 119.348 21.854C120.821 19.27 122.158 17.162 123.36 15.53C124.584 13.8753 125.615 13.048 126.454 13.048ZM145.45 13.898C145.586 13.3313 145.96 13.048 146.572 13.048C147.184 13.048 147.807 13.4333 148.442 14.204C149.099 14.9747 149.428 15.8473 149.428 16.822C149.428 17.3887 149.224 18.284 148.816 19.508C148.408 20.732 148.113 21.6047 147.932 22.126C147.773 22.6473 147.535 23.3613 147.218 24.268C146.901 25.152 146.606 25.9793 146.334 26.75C146.085 27.498 145.733 28.5067 145.28 29.776C144.849 31.0453 144.453 32.224 144.09 33.312C143.387 35.352 142.526 36.9273 141.506 38.038C140.509 39.1487 139.205 39.704 137.596 39.704C135.987 39.704 134.547 39.2733 133.278 38.412C132.009 37.5733 131.374 36.7233 131.374 35.862C131.374 35.3407 131.601 34.7627 132.054 34.128C132.53 33.4933 132.927 33.176 133.244 33.176C133.584 33.176 134.015 33.4367 134.536 33.958C135.08 34.502 135.635 35.0347 136.202 35.556C136.769 36.1 137.267 36.372 137.698 36.372C137.993 36.372 138.231 36.236 138.412 35.964C138.616 35.692 138.775 35.4427 138.888 35.216C139.024 35.012 139.16 34.7173 139.296 34.332C139.432 33.9693 139.557 33.6293 139.67 33.312C139.783 32.9947 139.919 32.5753 140.078 32.054C140.237 31.5327 140.373 31.068 140.486 30.66C140.871 29.436 141.2 28.348 141.472 27.396C140.724 28.3707 139.953 29.1527 139.16 29.742C138.367 30.3087 137.63 30.592 136.95 30.592C136.293 30.592 135.465 30.0933 134.468 29.096C133.493 28.076 133.006 26.9653 133.006 25.764C133.006 24.54 133.267 22.908 133.788 20.868C134.332 18.828 135.001 17.0147 135.794 15.428C136.587 13.8413 137.29 13.048 137.902 13.048C138.605 13.048 139.262 13.354 139.874 13.966C140.509 14.5553 140.826 15.1333 140.826 15.7C140.826 16.244 140.543 17.128 139.976 18.352C139.432 19.576 138.877 20.9133 138.31 22.364C137.743 23.8147 137.46 25.05 137.46 26.07C137.46 26.206 137.517 26.274 137.63 26.274C137.925 26.274 138.548 25.73 139.5 24.642C140.452 23.5313 141.517 21.9673 142.696 19.95C143.897 17.91 144.815 15.8927 145.45 13.898ZM155.226 27.124C156.45 26.58 157.515 25.4807 158.422 23.826C159.329 22.1713 159.782 20.6187 159.782 19.168C159.782 17.7173 159.578 16.72 159.17 16.176C158.195 16.7427 157.221 17.9327 156.246 19.746C155.294 21.5593 154.818 23.1573 154.818 24.54C154.818 25.9 154.954 26.7613 155.226 27.124ZM150.262 24.88C150.262 22.0467 151.135 19.3607 152.88 16.822C154.648 14.2833 156.393 13.014 158.116 13.014C159.839 13.014 161.289 13.626 162.468 14.85C163.647 16.0513 164.236 17.5133 164.236 19.236C164.236 20.936 163.828 22.67 163.012 24.438C162.196 26.206 161.051 27.6793 159.578 28.858C158.105 30.014 156.529 30.592 154.852 30.592C153.605 30.592 152.529 30.0367 151.622 28.926C150.715 27.8153 150.262 26.4667 150.262 24.88ZM167.808 18.794L167.604 14.952C167.604 13.6827 168.001 13.048 168.794 13.048C169.247 13.048 169.689 13.218 170.12 13.558C170.573 13.898 170.913 14.4307 171.14 15.156C171.911 14.476 172.749 13.932 173.656 13.524C174.585 13.0933 175.401 12.878 176.104 12.878C177.759 12.878 178.586 13.2747 178.586 14.068C178.586 14.476 178.507 14.782 178.348 14.986C178.212 15.1673 178.099 15.3033 178.008 15.394C177.94 15.4847 177.804 15.6093 177.6 15.768C177.419 15.904 177.283 16.006 177.192 16.074C176.671 16.414 176.297 16.652 176.07 16.788C175.05 17.4227 174.177 18.1933 173.452 19.1C172.727 19.984 172.183 21.2193 171.82 22.806C171.208 25.4127 170.607 27.362 170.018 28.654C169.451 29.9233 168.805 30.558 168.08 30.558C167.377 30.558 166.845 30.218 166.482 29.538C166.142 28.858 165.972 28.2233 165.972 27.634C165.972 27.022 166.187 26.1153 166.618 24.914C167.071 23.7127 167.377 22.6813 167.536 21.82C167.717 20.936 167.808 19.9273 167.808 18.794ZM192.706 20.936C193.114 21.2987 193.318 21.6273 193.318 21.922C193.318 22.2167 193.182 22.8287 192.91 23.758C192.638 24.6873 192.457 25.4127 192.366 25.934C192.276 26.4327 192.196 26.8293 192.128 27.124C192.083 27.4187 192.049 27.6567 192.026 27.838C192.004 27.9967 191.958 28.2007 191.89 28.45C191.845 28.6993 191.8 28.9033 191.754 29.062C191.732 29.198 191.686 29.368 191.618 29.572C191.573 29.7533 191.516 29.9007 191.448 30.014C191.38 30.1047 191.301 30.2067 191.21 30.32C191.074 30.5013 190.848 30.592 190.53 30.592C190.213 30.592 189.816 30.2747 189.34 29.64C188.887 29.0053 188.547 28.2347 188.32 27.328C186.19 29.504 184.399 30.592 182.948 30.592C181.974 30.592 180.92 30.0593 179.786 28.994C178.653 27.906 178.086 26.8293 178.086 25.764C178.086 24.676 178.574 23.1347 179.548 21.14C180.523 19.1453 181.849 17.298 183.526 15.598C185.226 13.898 186.904 13.048 188.558 13.048C189.51 13.048 190.61 13.6033 191.856 14.714C193.103 15.8247 193.726 16.8447 193.726 17.774C193.726 18.6807 193.386 19.7347 192.706 20.936ZM182.812 26.308C183.719 26.308 184.92 25.696 186.416 24.472C187.935 23.2253 188.876 21.6613 189.238 19.78C189.261 19.508 189.454 19.3493 189.816 19.304C189.748 18.012 189.533 17.366 189.17 17.366C188.264 17.366 187.244 17.9553 186.11 19.134C185 20.3127 184.082 21.5707 183.356 22.908C182.654 24.2453 182.302 25.2313 182.302 25.866C182.302 26.0473 182.325 26.172 182.37 26.24C182.438 26.2853 182.586 26.308 182.812 26.308ZM224.786 23.52C224.786 25.4467 223.868 27.1013 222.032 28.484C220.196 29.8667 218.1 30.558 215.742 30.558C213.385 30.558 211.481 29.98 210.03 28.824C208.602 27.6453 207.888 26.4327 207.888 25.186C207.888 23.9393 208.24 23.316 208.942 23.316C209.486 23.316 210.053 23.588 210.642 24.132C211.232 24.676 211.889 25.22 212.614 25.764C213.362 26.308 214.201 26.58 215.13 26.58C216.06 26.58 217.114 26.1947 218.292 25.424C219.471 24.6533 220.06 24.0073 220.06 23.486C220.06 22.9647 219.414 22.092 218.122 20.868C216.853 19.644 215.572 18.386 214.28 17.094C213.011 15.7793 212.376 14.7707 212.376 14.068C212.376 13.3427 212.501 12.5607 212.75 11.722C213.022 10.8833 213.351 10.3053 213.736 9.988C214.96 8.78667 216.536 7.75533 218.462 6.894C220.412 6.01 222.123 5.568 223.596 5.568C224.458 5.568 225.172 5.942 225.738 6.69C226.305 7.41533 226.588 8.17467 226.588 8.968C226.588 9.28533 226.328 9.546 225.806 9.75C225.308 9.93133 224.571 10.124 223.596 10.328C222.644 10.532 221.67 10.8267 220.672 11.212C218.36 12.0733 217.204 12.7987 217.204 13.388C217.204 13.66 217.601 14.1587 218.394 14.884C219.188 15.5867 220.049 16.3347 220.978 17.128C221.93 17.8987 222.803 18.8847 223.596 20.086C224.39 21.2647 224.786 22.4093 224.786 23.52ZM230.592 30.592C230.071 30.592 229.413 30.1727 228.62 29.334C227.849 28.4953 227.464 27.8267 227.464 27.328C227.464 27.192 227.838 25.8433 228.586 23.282C229.357 20.7207 230.116 17.638 230.864 14.034C231.635 10.43 232.02 7.27933 232.02 4.582C232.02 3.87933 232.337 3.528 232.972 3.528C233.516 3.528 234.23 4.02667 235.114 5.024C236.021 5.99867 236.474 6.91667 236.474 7.778C236.474 9.02467 236.021 11.382 235.114 14.85C234.23 18.318 233.346 21.0493 232.462 23.044C232.757 22.6587 233.153 22.1487 233.652 21.514C234.173 20.8567 234.593 20.324 234.91 19.916C235.227 19.508 235.613 19.0093 236.066 18.42C236.542 17.8307 236.939 17.3547 237.256 16.992C237.573 16.6067 237.925 16.1873 238.31 15.734C238.695 15.258 239.024 14.884 239.296 14.612C239.591 14.3173 239.885 14.0453 240.18 13.796C240.724 13.2973 241.143 13.048 241.438 13.048C242.005 13.048 242.628 13.4333 243.308 14.204C243.988 14.952 244.328 15.6093 244.328 16.176C244.328 16.4027 243.841 16.924 242.866 17.74C241.914 18.556 240.951 19.4627 239.976 20.46C239.024 21.4573 238.548 22.3527 238.548 23.146C238.548 23.9167 238.775 24.676 239.228 25.424C239.704 26.1493 240.214 26.7047 240.758 27.09C241.302 27.4753 241.801 27.872 242.254 28.28C242.73 28.6653 242.968 28.994 242.968 29.266C242.968 30.15 242.367 30.592 241.166 30.592C239.738 30.592 237.845 29.3907 235.488 26.988L234.672 26.172C232.632 29.1187 231.272 30.592 230.592 30.592ZM247.53 8.798C247.53 8.20867 247.79 7.608 248.312 6.996C248.856 6.36133 249.377 6.044 249.876 6.044C250.397 6.044 251.009 6.656 251.712 7.88C252.414 9.104 252.766 9.99933 252.766 10.566C252.766 11.11 252.584 11.5293 252.222 11.824C251.859 12.1187 251.485 12.266 251.1 12.266C250.442 12.266 249.683 11.8353 248.822 10.974C247.96 10.1127 247.53 9.38733 247.53 8.798ZM248.04 13.048C248.833 13.048 249.536 13.5013 250.148 14.408C250.782 15.3147 251.1 16.1873 251.1 17.026C251.1 17.4567 250.703 19.0093 249.91 21.684C249.139 24.336 248.368 26.852 247.598 29.232C247.326 30.116 246.77 30.558 245.932 30.558C245.433 30.558 244.991 30.3767 244.606 30.014C244.243 29.6287 244.062 29.1413 244.062 28.552C244.062 27.94 244.345 26.444 244.912 24.064C245.501 21.6613 245.943 19.6213 246.238 17.944C246.555 16.244 246.838 15.0087 247.088 14.238C247.36 13.4447 247.677 13.048 248.04 13.048ZM257.824 3.528C258.368 3.528 259.07 4.02667 259.932 5.024C260.793 6.02133 261.224 6.97333 261.224 7.88C261.224 8.78667 261.088 10.4073 260.816 12.742C260.544 15.054 260.26 16.9013 259.966 18.284C258.084 26.4893 256.77 30.592 256.022 30.592C255.523 30.592 254.9 30.1953 254.152 29.402C253.426 28.586 253.064 27.9173 253.064 27.396C253.064 27.3507 253.37 26.172 253.982 23.86C254.594 21.548 255.206 18.5787 255.818 14.952C256.452 11.3027 256.77 7.82333 256.77 4.514C256.77 3.85667 257.121 3.528 257.824 3.528ZM266.855 3.528C267.399 3.528 268.102 4.02667 268.963 5.024C269.824 6.02133 270.255 6.97333 270.255 7.88C270.255 8.78667 270.119 10.4073 269.847 12.742C269.575 15.054 269.292 16.9013 268.997 18.284C267.116 26.4893 265.801 30.592 265.053 30.592C264.554 30.592 263.931 30.1953 263.183 29.402C262.458 28.586 262.095 27.9173 262.095 27.396C262.095 27.3507 262.401 26.172 263.013 23.86C263.625 21.548 264.237 18.5787 264.849 14.952C265.484 11.3027 265.801 7.82333 265.801 4.514C265.801 3.85667 266.152 3.528 266.855 3.528ZM281.938 13.082C282.8 13.082 283.65 13.592 284.488 14.612C285.327 15.632 285.746 16.55 285.746 17.366C285.746 17.91 285.508 18.182 285.032 18.182C284.76 18.182 284.364 18.08 283.842 17.876C283.321 17.6493 282.788 17.536 282.244 17.536C281.723 17.536 280.941 17.7173 279.898 18.08C278.878 18.4427 278.368 18.9187 278.368 19.508C278.368 19.7347 278.674 20.0633 279.286 20.494C279.898 20.9247 280.567 21.3667 281.292 21.82C282.018 22.2733 282.686 22.908 283.298 23.724C283.91 24.5173 284.216 25.39 284.216 26.342C284.216 27.2713 283.525 28.212 282.142 29.164C280.782 30.116 279.173 30.592 277.314 30.592C275.478 30.592 273.903 30.1727 272.588 29.334C271.274 28.4953 270.616 27.634 270.616 26.75C270.616 25.866 270.979 25.424 271.704 25.424C271.999 25.424 272.35 25.5373 272.758 25.764C273.892 26.4213 275.297 26.75 276.974 26.75C278.674 26.75 279.524 26.5233 279.524 26.07C279.524 25.6167 279.196 25.118 278.538 24.574C277.904 24.0073 277.201 23.486 276.43 23.01C275.682 22.534 274.98 21.956 274.322 21.276C273.688 20.5733 273.37 19.8933 273.37 19.236C273.37 18.012 274.481 16.686 276.702 15.258C278.924 13.8073 280.669 13.082 281.938 13.082Z" fill="white"/>
<path d="M80.43 47.648C79.842 47.6667 79.3893 47.8953 79.072 48.334C78.764 48.7727 78.61 49.468 78.61 50.42C78.61 50.9053 78.6427 51.204 78.708 51.316C78.7733 51.4187 78.806 51.4793 78.806 51.498C78.2553 51.498 77.8447 51.386 77.574 51.162C77.3033 50.938 77.168 50.5553 77.168 50.014C77.168 49.3887 77.3313 48.8147 77.658 48.292C77.994 47.76 78.5353 47.3307 79.282 47.004C80.0287 46.668 80.99 46.5 82.166 46.5C82.3993 46.5 82.7167 46.5233 83.118 46.57C83.8367 46.6353 84.3313 46.668 84.602 46.668C85.1247 46.668 85.568 46.612 85.932 46.5C85.8853 46.6307 85.848 46.7613 85.82 46.892C85.7453 47.1533 85.6707 47.3727 85.596 47.55C85.5213 47.718 85.3953 47.8673 85.218 47.998C85.05 48.1193 84.8213 48.18 84.532 48.18C83.972 48.18 83.258 48.0867 82.39 47.9L80.43 57H78.414L80.43 47.648ZM84.2855 57.084C83.7535 57.084 83.3101 56.902 82.9555 56.538C82.6008 56.174 82.4235 55.6047 82.4235 54.83C82.4235 54.1393 82.5588 53.416 82.8295 52.66C83.1095 51.8947 83.5201 51.2507 84.0615 50.728C84.6121 50.196 85.2655 49.93 86.0215 49.93C86.4041 49.93 86.6888 49.9953 86.8755 50.126C87.0621 50.2567 87.1555 50.4293 87.1555 50.644V50.742L87.3095 50H89.3255L88.3175 54.76C88.2801 54.9 88.2615 55.0493 88.2615 55.208C88.2615 55.6093 88.4528 55.81 88.8355 55.81C89.0968 55.81 89.3208 55.6887 89.5075 55.446C89.7035 55.2033 89.8575 54.886 89.9695 54.494H90.5575C90.2121 55.502 89.7828 56.188 89.2695 56.552C88.7655 56.9067 88.2568 57.084 87.7435 57.084C87.3515 57.084 87.0341 56.9767 86.7915 56.762C86.5581 56.538 86.4181 56.216 86.3715 55.796C86.1008 56.1787 85.7975 56.4913 85.4615 56.734C85.1348 56.9673 84.7428 57.084 84.2855 57.084ZM85.1955 55.726C85.4288 55.726 85.6575 55.6187 85.8815 55.404C86.1148 55.18 86.2735 54.8767 86.3575 54.494L87.0295 51.33C87.0295 51.2087 86.9828 51.092 86.8895 50.98C86.7961 50.8587 86.6515 50.798 86.4555 50.798C86.0821 50.798 85.7461 51.0173 85.4475 51.456C85.1488 51.8853 84.9155 52.408 84.7475 53.024C84.5795 53.6307 84.4955 54.1673 84.4955 54.634C84.4955 55.1007 84.5608 55.3993 84.6915 55.53C84.8315 55.6607 84.9995 55.726 85.1955 55.726ZM91.0806 57.084C90.5766 57.084 90.1799 56.93 89.8906 56.622C89.5919 56.3047 89.4426 55.922 89.4426 55.474C89.4426 55.1567 89.5173 54.9047 89.6666 54.718C89.8159 54.522 90.0213 54.424 90.2826 54.424C90.5066 54.424 90.6886 54.494 90.8286 54.634C90.9686 54.774 91.0386 54.942 91.0386 55.138C91.0386 55.362 90.9826 55.5347 90.8706 55.656C90.7586 55.768 90.6279 55.8147 90.4786 55.796C90.4786 56.1507 90.6606 56.328 91.0246 56.328C91.2766 56.328 91.4866 56.23 91.6546 56.034C91.8226 55.8287 91.9673 55.5253 92.0886 55.124C92.2099 54.7227 92.3359 54.172 92.4666 53.472C92.6439 52.5293 92.8493 51.806 93.0826 51.302C93.3253 50.798 93.6006 50.4573 93.9086 50.28C94.2259 50.0933 94.6133 50 95.0706 50H97.1286L96.3866 53.472C96.2933 53.8733 96.2139 54.2233 96.1486 54.522C96.0833 54.8207 96.0506 55.026 96.0506 55.138C96.0506 55.53 96.2373 55.726 96.6106 55.726C96.8719 55.726 97.0819 55.6373 97.2406 55.46C97.3993 55.2827 97.5813 54.9607 97.7866 54.494H98.3746C97.7866 56.2207 96.9046 57.084 95.7286 57.084C95.2153 57.084 94.8186 56.9393 94.5386 56.65C94.2586 56.3607 94.1186 56.0107 94.1186 55.6C94.1186 55.2733 94.2213 54.6387 94.4266 53.696L95.0846 50.714C94.7299 50.714 94.4406 50.7887 94.2166 50.938C94.0019 51.0873 93.8199 51.3393 93.6706 51.694C93.5213 52.0487 93.3813 52.548 93.2506 53.192C93.0453 54.2467 92.8679 55.026 92.7186 55.53C92.5786 56.0247 92.3826 56.4073 92.1306 56.678C91.8786 56.9487 91.5286 57.084 91.0806 57.084ZM99.7833 57.084C99.0926 57.084 98.5559 56.9067 98.1733 56.552C97.7906 56.188 97.5992 55.6233 97.5992 54.858C97.5992 54.214 97.7252 53.5047 97.9773 52.73C98.2293 51.9553 98.6399 51.288 99.2093 50.728C99.7786 50.1587 100.502 49.874 101.379 49.874C102.406 49.874 102.919 50.322 102.919 51.218C102.919 51.7407 102.77 52.2213 102.471 52.66C102.173 53.0987 101.776 53.4533 101.281 53.724C100.787 53.9853 100.259 54.1347 99.6993 54.172C99.6806 54.452 99.6713 54.6387 99.6713 54.732C99.6713 55.1893 99.7506 55.502 99.9093 55.67C100.068 55.8287 100.325 55.908 100.679 55.908C101.183 55.908 101.613 55.7913 101.967 55.558C102.331 55.3247 102.728 54.97 103.157 54.494H103.633C102.597 56.2207 101.314 57.084 99.7833 57.084ZM99.8113 53.5C100.157 53.4813 100.483 53.36 100.791 53.136C101.109 52.912 101.361 52.6273 101.547 52.282C101.743 51.9367 101.841 51.5727 101.841 51.19C101.841 50.8073 101.725 50.616 101.491 50.616C101.155 50.616 100.824 50.91 100.497 51.498C100.18 52.086 99.9513 52.7533 99.8113 53.5ZM104.218 49.482H106.234L106.01 50.532C106.477 50.1307 107.023 49.93 107.648 49.93C108.171 49.93 108.586 50.1027 108.894 50.448C109.202 50.7933 109.356 51.358 109.356 52.142C109.356 52.8793 109.249 53.626 109.034 54.382C108.82 55.1287 108.456 55.768 107.942 56.3C107.429 56.8227 106.752 57.084 105.912 57.084C105.315 57.084 104.918 56.916 104.722 56.58L103.994 59.996L101.88 60.5L104.218 49.482ZM105.478 55.866C105.926 55.866 106.295 55.656 106.584 55.236C106.883 54.816 107.098 54.3167 107.228 53.738C107.368 53.15 107.438 52.604 107.438 52.1C107.438 51.3253 107.205 50.938 106.738 50.938C106.57 50.938 106.398 50.9987 106.22 51.12C106.052 51.2413 105.903 51.4093 105.772 51.624L104.946 55.544C105.021 55.7587 105.198 55.866 105.478 55.866ZM111.705 57.084C111.014 57.084 110.478 56.9067 110.095 56.552C109.712 56.188 109.521 55.6233 109.521 54.858C109.521 54.214 109.647 53.5047 109.899 52.73C110.151 51.9553 110.562 51.288 111.131 50.728C111.7 50.1587 112.424 49.874 113.301 49.874C114.328 49.874 114.841 50.322 114.841 51.218C114.841 51.7407 114.692 52.2213 114.393 52.66C114.094 53.0987 113.698 53.4533 113.203 53.724C112.708 53.9853 112.181 54.1347 111.621 54.172C111.602 54.452 111.593 54.6387 111.593 54.732C111.593 55.1893 111.672 55.502 111.831 55.67C111.99 55.8287 112.246 55.908 112.601 55.908C113.105 55.908 113.534 55.7913 113.889 55.558C114.253 55.3247 114.65 54.97 115.079 54.494H115.555C114.519 56.2207 113.236 57.084 111.705 57.084ZM111.733 53.5C112.078 53.4813 112.405 53.36 112.713 53.136C113.03 52.912 113.282 52.6273 113.469 52.282C113.665 51.9367 113.763 51.5727 113.763 51.19C113.763 50.8073 113.646 50.616 113.413 50.616C113.077 50.616 112.746 50.91 112.419 51.498C112.102 52.086 111.873 52.7533 111.733 53.5ZM116.112 57.084C115.608 57.084 115.221 56.9347 114.95 56.636C114.68 56.328 114.544 55.95 114.544 55.502C114.544 55.166 114.624 54.8953 114.782 54.69C114.932 54.4847 115.142 54.382 115.412 54.382C115.627 54.382 115.8 54.452 115.93 54.592C116.07 54.7227 116.14 54.8953 116.14 55.11C116.14 55.334 116.084 55.502 115.972 55.614C115.87 55.726 115.739 55.7727 115.58 55.754C115.59 55.8753 115.636 55.9827 115.72 56.076C115.804 56.16 115.94 56.202 116.126 56.202C116.425 56.202 116.654 56.034 116.812 55.698C116.98 55.362 117.148 54.8113 117.316 54.046C116.906 53.962 116.579 53.7847 116.336 53.514C116.103 53.2433 115.986 52.8793 115.986 52.422C115.986 51.7033 116.276 51.12 116.854 50.672C117.433 50.224 118.371 50 119.668 50H121.796L121.054 53.472C120.961 53.8733 120.882 54.2233 120.816 54.522C120.751 54.8207 120.718 55.026 120.718 55.138C120.718 55.53 120.905 55.726 121.278 55.726C121.456 55.726 121.614 55.684 121.754 55.6C121.652 56.4867 121.213 56.9813 120.438 57.084C119.906 57.084 119.496 56.944 119.206 56.664C118.926 56.3747 118.786 56.02 118.786 55.6C118.786 55.3293 118.87 54.8067 119.038 54.032C118.786 54.088 118.525 54.116 118.254 54.116C118.086 54.8347 117.923 55.3993 117.764 55.81C117.606 56.2207 117.396 56.538 117.134 56.762C116.873 56.9767 116.532 57.084 116.112 57.084ZM118.94 53.458C119.043 53.458 119.118 53.4487 119.164 53.43L119.752 50.756H119.416C118.875 50.756 118.46 50.9053 118.17 51.204C117.89 51.4933 117.75 51.8853 117.75 52.38C117.75 53.0987 118.086 53.458 118.758 53.458H118.94ZM137.004 54.494C136.416 56.2207 135.548 57.084 134.4 57.084C133.868 57.084 133.457 56.944 133.168 56.664C132.888 56.3747 132.748 56.02 132.748 55.6C132.748 55.236 132.846 54.6153 133.042 53.738L133.448 51.918L130.914 57H129.262L128.884 51.134C128.716 51.33 128.567 51.6147 128.436 51.988C128.305 52.352 128.179 52.8467 128.058 53.472C127.881 54.3867 127.717 55.0867 127.568 55.572C127.428 56.0573 127.227 56.4307 126.966 56.692C126.714 56.9533 126.373 57.084 125.944 57.084C125.44 57.084 125.043 56.93 124.754 56.622C124.455 56.3047 124.306 55.922 124.306 55.474C124.306 55.1567 124.381 54.9047 124.53 54.718C124.679 54.522 124.885 54.424 125.146 54.424C125.37 54.424 125.552 54.494 125.692 54.634C125.832 54.774 125.902 54.942 125.902 55.138C125.902 55.362 125.846 55.5347 125.734 55.656C125.622 55.768 125.491 55.8147 125.342 55.796C125.342 56.1507 125.524 56.328 125.888 56.328C126.149 56.328 126.364 56.2347 126.532 56.048C126.7 55.852 126.845 55.5347 126.966 55.096C127.097 54.6573 127.237 54.0227 127.386 53.192C127.591 52.0067 127.899 51.1807 128.31 50.714C128.73 50.238 129.276 50 129.948 50H130.578L130.844 55.376L133.49 50H135.758L135.016 53.472C134.923 53.8733 134.843 54.2233 134.778 54.522C134.713 54.8207 134.68 55.026 134.68 55.138C134.68 55.53 134.867 55.726 135.24 55.726C135.501 55.726 135.711 55.6373 135.87 55.46C136.029 55.2827 136.211 54.9607 136.416 54.494H137.004ZM138.462 57.056C137.771 57.056 137.225 56.8787 136.824 56.524C136.423 56.1693 136.222 55.6093 136.222 54.844C136.222 54.2093 136.353 53.5047 136.614 52.73C136.875 51.9553 137.295 51.288 137.874 50.728C138.453 50.1587 139.181 49.874 140.058 49.874C141.253 49.874 141.85 50.6207 141.85 52.114V52.128C141.878 52.1373 141.929 52.142 142.004 52.142C142.312 52.142 142.667 52.0627 143.068 51.904C143.469 51.736 143.833 51.5353 144.16 51.302L144.286 51.68C144.015 51.9693 143.661 52.2167 143.222 52.422C142.793 52.618 142.321 52.758 141.808 52.842C141.733 53.6913 141.542 54.4333 141.234 55.068C140.926 55.7027 140.529 56.1927 140.044 56.538C139.559 56.8833 139.031 57.056 138.462 57.056ZM139.022 55.796C139.246 55.796 139.47 55.67 139.694 55.418C139.918 55.1567 140.114 54.8067 140.282 54.368C140.45 53.92 140.571 53.4253 140.646 52.884C140.394 52.828 140.268 52.632 140.268 52.296C140.268 51.9133 140.413 51.6613 140.702 51.54C140.683 51.232 140.637 51.022 140.562 50.91C140.487 50.7887 140.357 50.728 140.17 50.728C139.862 50.728 139.563 50.952 139.274 51.4C138.985 51.848 138.751 52.3847 138.574 53.01C138.397 53.6353 138.308 54.186 138.308 54.662C138.308 55.11 138.359 55.4133 138.462 55.572C138.565 55.7213 138.751 55.796 139.022 55.796ZM143.956 57.084C143.508 57.084 143.144 56.944 142.864 56.664C142.594 56.384 142.458 55.964 142.458 55.404C142.458 55.1707 142.496 54.8673 142.57 54.494L143.522 50H145.538L144.53 54.76C144.502 54.9 144.488 55.0307 144.488 55.152C144.488 55.5347 144.628 55.726 144.908 55.726C145.17 55.726 145.394 55.6187 145.58 55.404C145.767 55.18 145.916 54.8767 146.028 54.494L146.98 50H148.996L147.988 54.76C147.951 54.9 147.932 55.0493 147.932 55.208C147.932 55.3947 147.974 55.53 148.058 55.614C148.152 55.6887 148.301 55.726 148.506 55.726C148.768 55.726 148.992 55.614 149.178 55.39C149.374 55.166 149.528 54.8673 149.64 54.494H150.228C149.883 55.502 149.454 56.188 148.94 56.552C148.436 56.9067 147.928 57.084 147.414 57.084C147.013 57.084 146.691 56.972 146.448 56.748C146.215 56.524 146.075 56.1927 146.028 55.754C145.711 56.2673 145.375 56.6173 145.02 56.804C144.675 56.9907 144.32 57.084 143.956 57.084ZM154.623 57.084C154.193 57.084 153.843 56.8927 153.573 56.51C153.311 56.118 153.111 55.4973 152.971 54.648L151.039 57H150.031L152.859 53.808L152.635 52.24C152.56 51.7827 152.481 51.4747 152.397 51.316C152.322 51.1573 152.224 51.078 152.103 51.078C151.916 51.078 151.706 51.2087 151.473 51.47C151.239 51.722 151.011 52.1093 150.787 52.632C150.572 53.1453 150.385 53.766 150.227 54.494H149.639C149.909 53.2247 150.311 52.1467 150.843 51.26C151.384 50.3733 152.084 49.93 152.943 49.93C153.437 49.93 153.792 50.0887 154.007 50.406C154.231 50.7233 154.38 51.12 154.455 51.596L154.623 52.618C155.005 52.17 155.29 51.792 155.477 51.484C155.673 51.176 155.78 50.896 155.799 50.644C155.668 50.6627 155.589 50.672 155.561 50.672C155.327 50.672 155.159 50.602 155.057 50.462C154.954 50.3127 154.903 50.1213 154.903 49.888C154.903 49.6547 154.991 49.482 155.169 49.37C155.355 49.258 155.584 49.202 155.855 49.202C156.097 49.202 156.289 49.3327 156.429 49.594C156.569 49.846 156.639 50.14 156.639 50.476C156.639 50.8773 156.503 51.2787 156.233 51.68C155.962 52.0813 155.472 52.6693 154.763 53.444L154.945 54.508C155.019 54.9747 155.113 55.2967 155.225 55.474C155.337 55.642 155.514 55.726 155.757 55.726C155.953 55.726 156.125 55.698 156.275 55.642C156.237 56.118 156.06 56.4773 155.743 56.72C155.425 56.9627 155.052 57.084 154.623 57.084ZM164.756 57.084C164.224 57.084 163.813 56.944 163.524 56.664C163.244 56.3747 163.104 56.02 163.104 55.6C163.104 55.3293 163.211 54.676 163.426 53.64H161.872L161.158 57H159.142L160.626 50H162.642L162.04 52.8H163.608L164.238 50H166.114L165.372 53.472C165.278 53.8733 165.199 54.2233 165.134 54.522C165.068 54.8207 165.036 55.026 165.036 55.138C165.036 55.53 165.222 55.726 165.596 55.726C165.857 55.726 166.067 55.6373 166.226 55.46C166.384 55.2827 166.566 54.9607 166.772 54.494H167.36C166.772 56.2207 165.904 57.084 164.756 57.084ZM168.45 57.084C167.918 57.084 167.474 56.902 167.12 56.538C166.765 56.174 166.588 55.6047 166.588 54.83C166.588 54.1393 166.723 53.416 166.994 52.66C167.274 51.8947 167.684 51.2507 168.226 50.728C168.776 50.196 169.43 49.93 170.186 49.93C170.568 49.93 170.853 49.9953 171.04 50.126C171.226 50.2567 171.32 50.4293 171.32 50.644V50.742L171.474 50H173.49L172.482 54.76C172.444 54.9 172.426 55.0493 172.426 55.208C172.426 55.6093 172.617 55.81 173 55.81C173.261 55.81 173.485 55.6887 173.672 55.446C173.868 55.2033 174.022 54.886 174.134 54.494H174.722C174.376 55.502 173.947 56.188 173.434 56.552C172.93 56.9067 172.421 57.084 171.908 57.084C171.516 57.084 171.198 56.9767 170.956 56.762C170.722 56.538 170.582 56.216 170.536 55.796C170.265 56.1787 169.962 56.4913 169.626 56.734C169.299 56.9673 168.907 57.084 168.45 57.084ZM169.36 55.726C169.593 55.726 169.822 55.6187 170.046 55.404C170.279 55.18 170.438 54.8767 170.522 54.494L171.194 51.33C171.194 51.2087 171.147 51.092 171.054 50.98C170.96 50.8587 170.816 50.798 170.62 50.798C170.246 50.798 169.91 51.0173 169.612 51.456C169.313 51.8853 169.08 52.408 168.912 53.024C168.744 53.6307 168.66 54.1673 168.66 54.634C168.66 55.1007 168.725 55.3993 168.856 55.53C168.996 55.6607 169.164 55.726 169.36 55.726ZM176.267 57.056C175.492 57.056 174.909 56.8273 174.517 56.37C174.134 55.9127 173.943 55.3013 173.943 54.536C173.943 53.7893 174.143 52.7627 174.545 51.456C174.946 50.14 175.478 48.9827 176.141 47.984C176.803 46.9853 177.517 46.486 178.283 46.486C179.309 46.486 179.823 47.1253 179.823 48.404C179.823 49.3093 179.44 50.4293 178.675 51.764C178.871 51.8573 179.048 51.9973 179.207 52.184C179.617 52.184 180.061 52.0953 180.537 51.918C181.022 51.7407 181.433 51.5353 181.769 51.302L181.895 51.68C181.643 51.9507 181.307 52.1887 180.887 52.394C180.476 52.59 180.023 52.73 179.529 52.814C179.575 52.9913 179.599 53.2247 179.599 53.514C179.599 54.1393 179.463 54.7227 179.193 55.264C178.922 55.8053 178.535 56.2393 178.031 56.566C177.527 56.8927 176.939 57.056 176.267 57.056ZM176.883 55.796C177.172 55.796 177.424 55.698 177.639 55.502C177.863 55.306 178.031 55.0587 178.143 54.76C178.264 54.4613 178.325 54.1533 178.325 53.836C178.325 53.4907 178.283 53.234 178.199 53.066C178.133 53.094 178.063 53.1173 177.989 53.136C177.914 53.1453 177.816 53.15 177.695 53.15C177.471 53.15 177.293 53.0893 177.163 52.968C177.032 52.8467 176.967 52.6787 176.967 52.464C176.967 52.184 177.051 51.9787 177.219 51.848C177.396 51.7173 177.639 51.6427 177.947 51.624C178.217 51.1293 178.446 50.5833 178.633 49.986C178.829 49.3793 178.927 48.8333 178.927 48.348C178.927 48.068 178.889 47.872 178.815 47.76C178.749 47.6387 178.633 47.578 178.465 47.578C178.101 47.578 177.727 48.0307 177.345 48.936C176.971 49.8413 176.659 50.8727 176.407 52.03C176.155 53.1873 176.029 54.0367 176.029 54.578C176.029 55.39 176.313 55.796 176.883 55.796ZM182.346 57.084C181.711 57.084 181.216 56.9253 180.862 56.608C180.516 56.2907 180.344 55.852 180.344 55.292C180.344 55.012 180.376 54.746 180.442 54.494L181.366 50H183.298L182.262 54.928C182.234 55.0027 182.22 55.1333 182.22 55.32C182.22 55.7027 182.43 55.894 182.85 55.894C183.102 55.894 183.344 55.7913 183.578 55.586C183.811 55.3713 183.998 55.0867 184.138 54.732C184.278 54.3773 184.348 53.99 184.348 53.57C184.348 53.3367 184.278 53.1593 184.138 53.038C184.016 53.122 183.881 53.164 183.732 53.164C183.573 53.164 183.428 53.1127 183.298 53.01C183.176 52.9073 183.116 52.758 183.116 52.562C183.116 52.3567 183.195 52.198 183.354 52.086C183.512 51.974 183.694 51.918 183.9 51.918C184.114 51.918 184.306 51.946 184.474 52.002C185.071 51.7313 185.785 51.344 186.616 50.84C187.288 50.4387 187.773 50.1587 188.072 50H188.94L188.198 53.472C188.104 53.8733 188.025 54.2233 187.96 54.522C187.894 54.8207 187.862 55.026 187.862 55.138C187.862 55.53 188.048 55.726 188.422 55.726C188.683 55.726 188.893 55.6373 189.052 55.46C189.21 55.2827 189.392 54.9607 189.598 54.494H190.186C189.598 56.2207 188.734 57.084 187.596 57.084C187.054 57.084 186.644 56.9393 186.364 56.65C186.084 56.3513 185.944 55.9873 185.944 55.558C185.944 55.222 186.2 53.906 186.714 51.61C186.275 51.89 185.752 52.1933 185.146 52.52C185.37 52.8653 185.482 53.332 185.482 53.92C185.482 54.3587 185.365 54.8253 185.132 55.32C184.898 55.8053 184.544 56.2207 184.068 56.566C183.601 56.9113 183.027 57.084 182.346 57.084ZM194.656 57.084C194.096 57.084 193.671 56.9487 193.382 56.678C193.102 56.398 192.962 56.0153 192.962 55.53C192.962 55.3993 192.994 55.138 193.06 54.746C193.106 54.5127 193.13 54.3307 193.13 54.2C193.13 53.752 192.952 53.528 192.598 53.528C192.476 53.528 192.36 53.5653 192.248 53.64C192.145 53.7053 191.963 53.8407 191.702 54.046L191.086 57H189.07L190.568 50H192.584L191.982 52.772C192.616 52.0253 193.12 51.456 193.494 51.064C193.867 50.672 194.208 50.378 194.516 50.182C194.833 49.9767 195.141 49.874 195.44 49.874C196.018 49.874 196.308 50.182 196.308 50.798C196.308 51.078 196.228 51.302 196.07 51.47C195.92 51.6287 195.706 51.708 195.426 51.708C195.164 51.708 194.968 51.638 194.838 51.498C194.707 51.3487 194.646 51.1807 194.656 50.994C194.478 51.106 194.32 51.232 194.18 51.372C194.04 51.512 193.886 51.694 193.718 51.918C193.522 52.1793 193.33 52.4033 193.144 52.59C193.33 52.5527 193.526 52.534 193.732 52.534C194.217 52.534 194.558 52.6413 194.754 52.856C194.959 53.0707 195.062 53.3973 195.062 53.836C195.062 53.9667 195.034 54.1813 194.978 54.48C194.922 54.7973 194.894 55.04 194.894 55.208C194.894 55.5533 195.08 55.726 195.454 55.726C195.715 55.726 195.92 55.6373 196.07 55.46C196.228 55.2827 196.41 54.9607 196.616 54.494H197.204C196.616 56.2207 195.766 57.084 194.656 57.084ZM198.659 57.056C197.969 57.056 197.423 56.8787 197.021 56.524C196.62 56.1693 196.419 55.6093 196.419 54.844C196.419 54.2093 196.55 53.5047 196.811 52.73C197.073 51.9553 197.493 51.288 198.071 50.728C198.65 50.1587 199.378 49.874 200.255 49.874C201.45 49.874 202.047 50.6207 202.047 52.114V52.128C202.075 52.1373 202.127 52.142 202.201 52.142C202.509 52.142 202.864 52.0627 203.265 51.904C203.667 51.736 204.031 51.5353 204.357 51.302L204.483 51.68C204.213 51.9693 203.858 52.2167 203.419 52.422C202.99 52.618 202.519 52.758 202.005 52.842C201.931 53.6913 201.739 54.4333 201.431 55.068C201.123 55.7027 200.727 56.1927 200.241 56.538C199.756 56.8833 199.229 57.056 198.659 57.056ZM199.219 55.796C199.443 55.796 199.667 55.67 199.891 55.418C200.115 55.1567 200.311 54.8067 200.479 54.368C200.647 53.92 200.769 53.4253 200.843 52.884C200.591 52.828 200.465 52.632 200.465 52.296C200.465 51.9133 200.61 51.6613 200.899 51.54C200.881 51.232 200.834 51.022 200.759 50.91C200.685 50.7887 200.554 50.728 200.367 50.728C200.059 50.728 199.761 50.952 199.471 51.4C199.182 51.848 198.949 52.3847 198.771 53.01C198.594 53.6353 198.505 54.186 198.505 54.662C198.505 55.11 198.557 55.4133 198.659 55.572C198.762 55.7213 198.949 55.796 199.219 55.796ZM204.896 57.056C204.121 57.056 203.538 56.8273 203.146 56.37C202.763 55.9127 202.572 55.3013 202.572 54.536C202.572 53.7893 202.772 52.7627 203.174 51.456C203.575 50.14 204.107 48.9827 204.77 47.984C205.432 46.9853 206.146 46.486 206.912 46.486C207.938 46.486 208.452 47.1253 208.452 48.404C208.452 49.3093 208.069 50.4293 207.304 51.764C207.64 51.9507 207.878 52.184 208.018 52.464C208.158 52.7347 208.228 53.0847 208.228 53.514C208.228 54.1393 208.092 54.7227 207.822 55.264C207.551 55.8053 207.164 56.2393 206.66 56.566C206.156 56.8927 205.568 57.056 204.896 57.056ZM205.512 55.796C205.801 55.796 206.053 55.698 206.268 55.502C206.492 55.306 206.66 55.0587 206.772 54.76C206.893 54.4613 206.954 54.1533 206.954 53.836C206.954 53.4907 206.912 53.234 206.828 53.066C206.762 53.094 206.692 53.1173 206.618 53.136C206.543 53.1453 206.445 53.15 206.324 53.15C206.1 53.15 205.922 53.0893 205.792 52.968C205.661 52.8467 205.596 52.6787 205.596 52.464C205.596 52.184 205.68 51.9787 205.848 51.848C206.025 51.7173 206.268 51.6427 206.576 51.624C206.846 51.1293 207.075 50.5833 207.262 49.986C207.458 49.3793 207.556 48.8333 207.556 48.348C207.556 48.068 207.518 47.872 207.444 47.76C207.378 47.6387 207.262 47.578 207.094 47.578C206.73 47.578 206.356 48.0307 205.974 48.936C205.6 49.8413 205.288 50.8727 205.036 52.03C204.784 53.1873 204.658 54.0367 204.658 54.578C204.658 55.39 204.942 55.796 205.512 55.796ZM213.618 57.056C212.844 57.056 212.26 56.8273 211.868 56.37C211.486 55.9127 211.294 55.3013 211.294 54.536C211.294 53.7893 211.495 52.7627 211.896 51.456C212.298 50.14 212.83 48.9827 213.492 47.984C214.155 46.9853 214.869 46.486 215.634 46.486C216.661 46.486 217.174 47.1253 217.174 48.404C217.174 49.3093 216.792 50.4293 216.026 51.764C216.362 51.9507 216.6 52.184 216.74 52.464C216.88 52.7347 216.95 53.0847 216.95 53.514C216.95 54.1393 216.815 54.7227 216.544 55.264C216.274 55.8053 215.886 56.2393 215.382 56.566C214.878 56.8927 214.29 57.056 213.618 57.056ZM214.234 55.796C214.524 55.796 214.776 55.698 214.99 55.502C215.214 55.306 215.382 55.0587 215.494 54.76C215.616 54.4613 215.676 54.1533 215.676 53.836C215.676 53.4907 215.634 53.234 215.55 53.066C215.485 53.094 215.415 53.1173 215.34 53.136C215.266 53.1453 215.168 53.15 215.046 53.15C214.822 53.15 214.645 53.0893 214.514 52.968C214.384 52.8467 214.318 52.6787 214.318 52.464C214.318 52.184 214.402 51.9787 214.57 51.848C214.748 51.7173 214.99 51.6427 215.298 51.624C215.569 51.1293 215.798 50.5833 215.984 49.986C216.18 49.3793 216.278 48.8333 216.278 48.348C216.278 48.068 216.241 47.872 216.166 47.76C216.101 47.6387 215.984 47.578 215.816 47.578C215.452 47.578 215.079 48.0307 214.696 48.936C214.323 49.8413 214.01 50.8727 213.758 52.03C213.506 53.1873 213.38 54.0367 213.38 54.578C213.38 55.39 213.665 55.796 214.234 55.796ZM222.341 57.056C221.566 57.056 220.983 56.8273 220.591 56.37C220.208 55.9127 220.017 55.3013 220.017 54.536C220.017 53.7893 220.218 52.7627 220.619 51.456C221.02 50.14 221.552 48.9827 222.215 47.984C222.878 46.9853 223.592 46.486 224.357 46.486C225.384 46.486 225.897 47.1253 225.897 48.404C225.897 49.3093 225.514 50.4293 224.749 51.764C224.945 51.8573 225.122 51.9973 225.281 52.184C225.692 52.184 226.135 52.0953 226.611 51.918C227.096 51.7407 227.507 51.5353 227.843 51.302L227.969 51.68C227.717 51.9507 227.381 52.1887 226.961 52.394C226.55 52.59 226.098 52.73 225.603 52.814C225.65 52.9913 225.673 53.2247 225.673 53.514C225.673 54.1393 225.538 54.7227 225.267 55.264C224.996 55.8053 224.609 56.2393 224.105 56.566C223.601 56.8927 223.013 57.056 222.341 57.056ZM222.957 55.796C223.246 55.796 223.498 55.698 223.713 55.502C223.937 55.306 224.105 55.0587 224.217 54.76C224.338 54.4613 224.399 54.1533 224.399 53.836C224.399 53.4907 224.357 53.234 224.273 53.066C224.208 53.094 224.138 53.1173 224.063 53.136C223.988 53.1453 223.89 53.15 223.769 53.15C223.545 53.15 223.368 53.0893 223.237 52.968C223.106 52.8467 223.041 52.6787 223.041 52.464C223.041 52.184 223.125 51.9787 223.293 51.848C223.47 51.7173 223.713 51.6427 224.021 51.624C224.292 51.1293 224.52 50.5833 224.707 49.986C224.903 49.3793 225.001 48.8333 225.001 48.348C225.001 48.068 224.964 47.872 224.889 47.76C224.824 47.6387 224.707 47.578 224.539 47.578C224.175 47.578 223.802 48.0307 223.419 48.936C223.046 49.8413 222.733 50.8727 222.481 52.03C222.229 53.1873 222.103 54.0367 222.103 54.578C222.103 55.39 222.388 55.796 222.957 55.796ZM228.504 57.084C227.813 57.084 227.277 56.9067 226.894 56.552C226.511 56.188 226.32 55.6233 226.32 54.858C226.32 54.214 226.446 53.5047 226.698 52.73C226.95 51.9553 227.361 51.288 227.93 50.728C228.499 50.1587 229.223 49.874 230.1 49.874C231.127 49.874 231.64 50.322 231.64 51.218C231.64 51.7407 231.491 52.2213 231.192 52.66C230.893 53.0987 230.497 53.4533 230.002 53.724C229.507 53.9853 228.98 54.1347 228.42 54.172C228.401 54.452 228.392 54.6387 228.392 54.732C228.392 55.1893 228.471 55.502 228.63 55.67C228.789 55.8287 229.045 55.908 229.4 55.908C229.904 55.908 230.333 55.7913 230.688 55.558C231.052 55.3247 231.449 54.97 231.878 54.494H232.354C231.318 56.2207 230.035 57.084 228.504 57.084ZM228.532 53.5C228.877 53.4813 229.204 53.36 229.512 53.136C229.829 52.912 230.081 52.6273 230.268 52.282C230.464 51.9367 230.562 51.5727 230.562 51.19C230.562 50.8073 230.445 50.616 230.212 50.616C229.876 50.616 229.545 50.91 229.218 51.498C228.901 52.086 228.672 52.7533 228.532 53.5ZM232.939 49.482H234.955L234.731 50.532C235.198 50.1307 235.744 49.93 236.369 49.93C236.892 49.93 237.307 50.1027 237.615 50.448C237.923 50.7933 238.077 51.358 238.077 52.142C238.077 52.8793 237.97 53.626 237.755 54.382C237.54 55.1287 237.176 55.768 236.663 56.3C236.15 56.8227 235.473 57.084 234.633 57.084C234.036 57.084 233.639 56.916 233.443 56.58L232.715 59.996L230.601 60.5L232.939 49.482ZM234.199 55.866C234.647 55.866 235.016 55.656 235.305 55.236C235.604 54.816 235.818 54.3167 235.949 53.738C236.089 53.15 236.159 52.604 236.159 52.1C236.159 51.3253 235.926 50.938 235.459 50.938C235.291 50.938 235.118 50.9987 234.941 51.12C234.773 51.2413 234.624 51.4093 234.493 51.624L233.667 55.544C233.742 55.7587 233.919 55.866 234.199 55.866ZM240.426 57.084C239.735 57.084 239.198 56.9067 238.816 56.552C238.433 56.188 238.242 55.6233 238.242 54.858C238.242 54.214 238.368 53.5047 238.62 52.73C238.881 51.9553 239.292 51.288 239.852 50.728C240.421 50.1587 241.14 49.874 242.008 49.874C242.568 49.874 242.964 49.9953 243.198 50.238C243.44 50.4807 243.562 50.7887 243.562 51.162C243.562 51.4887 243.492 51.7407 243.352 51.918C243.212 52.0953 243.034 52.184 242.82 52.184C242.661 52.184 242.498 52.128 242.33 52.016C242.442 51.708 242.498 51.4327 242.498 51.19C242.498 51.0127 242.465 50.8727 242.4 50.77C242.334 50.6673 242.236 50.616 242.106 50.616C241.826 50.616 241.546 50.8447 241.266 51.302C240.986 51.7593 240.757 52.3147 240.58 52.968C240.402 53.6213 240.314 54.2093 240.314 54.732C240.314 55.1893 240.393 55.502 240.552 55.67C240.71 55.8287 240.967 55.908 241.322 55.908C241.826 55.908 242.255 55.7913 242.61 55.558C242.974 55.3247 243.37 54.97 243.8 54.494H244.276C243.24 56.2207 241.956 57.084 240.426 57.084ZM252.309 57.084C251.74 57.084 251.32 56.9347 251.049 56.636C250.788 56.328 250.657 55.95 250.657 55.502C250.657 55.306 250.68 55.0867 250.727 54.844C250.774 54.592 250.82 54.3493 250.867 54.116C250.923 53.8827 250.96 53.7333 250.979 53.668C251.054 53.3413 251.124 53.0193 251.189 52.702C251.254 52.3847 251.287 52.128 251.287 51.932C251.287 51.456 251.119 51.218 250.783 51.218C250.54 51.218 250.326 51.3393 250.139 51.582C249.952 51.8153 249.803 52.1233 249.691 52.506L248.739 57H246.723L247.745 52.17C247.773 52.058 247.787 51.9413 247.787 51.82C247.787 51.4093 247.647 51.204 247.367 51.204C247.106 51.204 246.877 51.3253 246.681 51.568C246.494 51.8013 246.345 52.114 246.233 52.506L245.281 57H243.265L244.749 50H246.765L246.611 50.728C247.087 50.196 247.656 49.93 248.319 49.93C249.14 49.93 249.621 50.3313 249.761 51.134C250.274 50.3407 250.923 49.944 251.707 49.944C252.183 49.944 252.561 50.0747 252.841 50.336C253.121 50.5973 253.261 50.994 253.261 51.526C253.261 51.7967 253.228 52.1 253.163 52.436C253.098 52.7627 253.004 53.164 252.883 53.64C252.808 53.9293 252.738 54.214 252.673 54.494C252.617 54.7647 252.589 54.9793 252.589 55.138C252.589 55.3247 252.631 55.4693 252.715 55.572C252.799 55.6747 252.944 55.726 253.149 55.726C253.429 55.726 253.653 55.628 253.821 55.432C253.989 55.2267 254.157 54.914 254.325 54.494H254.913C254.568 55.5207 254.166 56.2113 253.709 56.566C253.261 56.9113 252.794 57.084 252.309 57.084ZM259.378 57.084C258.818 57.084 258.394 56.9487 258.104 56.678C257.824 56.398 257.684 56.0153 257.684 55.53C257.684 55.3993 257.717 55.138 257.782 54.746C257.829 54.5127 257.852 54.3307 257.852 54.2C257.852 53.752 257.675 53.528 257.32 53.528C257.199 53.528 257.082 53.5653 256.97 53.64C256.868 53.7053 256.686 53.8407 256.424 54.046L255.808 57H253.792L255.29 50H257.306L256.704 52.772C257.339 52.0253 257.843 51.456 258.216 51.064C258.59 50.672 258.93 50.378 259.238 50.182C259.556 49.9767 259.864 49.874 260.162 49.874C260.741 49.874 261.03 50.182 261.03 50.798C261.03 51.078 260.951 51.302 260.792 51.47C260.643 51.6287 260.428 51.708 260.148 51.708C259.887 51.708 259.691 51.638 259.56 51.498C259.43 51.3487 259.369 51.1807 259.378 50.994C259.201 51.106 259.042 51.232 258.902 51.372C258.762 51.512 258.608 51.694 258.44 51.918C258.244 52.1793 258.053 52.4033 257.866 52.59C258.053 52.5527 258.249 52.534 258.454 52.534C258.94 52.534 259.28 52.6413 259.476 52.856C259.682 53.0707 259.784 53.3973 259.784 53.836C259.784 53.9667 259.756 54.1813 259.7 54.48C259.644 54.7973 259.616 55.04 259.616 55.208C259.616 55.5533 259.803 55.726 260.176 55.726C260.438 55.726 260.643 55.6373 260.792 55.46C260.951 55.2827 261.133 54.9607 261.338 54.494H261.926C261.338 56.2207 260.489 57.084 259.378 57.084ZM263.312 57.084C262.631 57.084 262.099 56.9067 261.716 56.552C261.333 56.188 261.142 55.6233 261.142 54.858C261.142 54.214 261.268 53.5047 261.52 52.73C261.772 51.9553 262.183 51.288 262.752 50.728C263.321 50.1587 264.045 49.874 264.922 49.874C265.949 49.874 266.462 50.322 266.462 51.218C266.462 51.7407 266.313 52.2213 266.014 52.66C265.715 53.0987 265.319 53.4533 264.824 53.724C264.329 53.9853 263.802 54.1347 263.242 54.172C263.223 54.3773 263.214 54.5173 263.214 54.592C263.214 55.3667 263.503 55.754 264.082 55.754C264.343 55.754 264.623 55.684 264.922 55.544C265.221 55.404 265.491 55.2267 265.734 55.012C265.482 56.3933 264.675 57.084 263.312 57.084ZM263.34 53.5C263.695 53.4907 264.026 53.374 264.334 53.15C264.651 52.926 264.903 52.6413 265.09 52.296C265.286 51.9413 265.384 51.5727 265.384 51.19C265.384 50.8073 265.267 50.616 265.034 50.616C264.707 50.616 264.381 50.9147 264.054 51.512C263.737 52.1 263.499 52.7627 263.34 53.5ZM270.886 57.084C270.438 57.084 270.074 56.944 269.794 56.664C269.523 56.384 269.388 55.964 269.388 55.404C269.388 55.1707 269.425 54.8673 269.5 54.494L270.452 50H272.468L271.46 54.76C271.432 54.872 271.418 54.9887 271.418 55.11C271.418 55.5207 271.558 55.726 271.838 55.726C272.099 55.726 272.323 55.6187 272.51 55.404C272.697 55.18 272.846 54.8767 272.958 54.494L273.91 50H275.926L274.918 54.76C274.881 54.9 274.862 55.0493 274.862 55.208C274.862 55.3947 274.904 55.53 274.988 55.614C275.081 55.6887 275.231 55.726 275.436 55.726C275.585 55.726 275.693 55.7167 275.758 55.698C275.833 55.67 275.879 55.6513 275.898 55.642C275.861 56.118 275.697 56.4773 275.408 56.72C275.119 56.9627 274.764 57.084 274.344 57.084C273.952 57.084 273.635 56.9673 273.392 56.734C273.159 56.5007 273.019 56.174 272.972 55.754C272.655 56.2673 272.319 56.6173 271.964 56.804C271.619 56.9907 271.259 57.084 270.886 57.084ZM281.089 57.056C280.314 57.056 279.731 56.8273 279.339 56.37C278.956 55.9127 278.765 55.3013 278.765 54.536C278.765 53.7893 278.966 52.7627 279.367 51.456C279.768 50.14 280.3 48.9827 280.963 47.984C281.626 46.9853 282.34 46.486 283.105 46.486C284.132 46.486 284.645 47.1253 284.645 48.404C284.645 49.3093 284.262 50.4293 283.497 51.764C283.693 51.8573 283.87 51.9973 284.029 52.184C284.44 52.184 284.883 52.0953 285.359 51.918C285.844 51.7407 286.255 51.5353 286.591 51.302L286.717 51.68C286.465 51.9507 286.129 52.1887 285.709 52.394C285.298 52.59 284.846 52.73 284.351 52.814C284.398 52.9913 284.421 53.2247 284.421 53.514C284.421 54.1393 284.286 54.7227 284.015 55.264C283.744 55.8053 283.357 56.2393 282.853 56.566C282.349 56.8927 281.761 57.056 281.089 57.056ZM281.705 55.796C281.994 55.796 282.246 55.698 282.461 55.502C282.685 55.306 282.853 55.0587 282.965 54.76C283.086 54.4613 283.147 54.1533 283.147 53.836C283.147 53.4907 283.105 53.234 283.021 53.066C282.956 53.094 282.886 53.1173 282.811 53.136C282.736 53.1453 282.638 53.15 282.517 53.15C282.293 53.15 282.116 53.0893 281.985 52.968C281.854 52.8467 281.789 52.6787 281.789 52.464C281.789 52.184 281.873 51.9787 282.041 51.848C282.218 51.7173 282.461 51.6427 282.769 51.624C283.04 51.1293 283.268 50.5833 283.455 49.986C283.651 49.3793 283.749 48.8333 283.749 48.348C283.749 48.068 283.712 47.872 283.637 47.76C283.572 47.6387 283.455 47.578 283.287 47.578C282.923 47.578 282.55 48.0307 282.167 48.936C281.794 49.8413 281.481 50.8727 281.229 52.03C280.977 53.1873 280.851 54.0367 280.851 54.578C280.851 55.39 281.136 55.796 281.705 55.796ZM287.252 57.084C286.561 57.084 286.025 56.9067 285.642 56.552C285.259 56.188 285.068 55.6233 285.068 54.858C285.068 54.214 285.194 53.5047 285.446 52.73C285.698 51.9553 286.109 51.288 286.678 50.728C287.247 50.1587 287.971 49.874 288.848 49.874C289.875 49.874 290.388 50.322 290.388 51.218C290.388 51.7407 290.239 52.2213 289.94 52.66C289.641 53.0987 289.245 53.4533 288.75 53.724C288.255 53.9853 287.728 54.1347 287.168 54.172C287.149 54.452 287.14 54.6387 287.14 54.732C287.14 55.1893 287.219 55.502 287.378 55.67C287.537 55.8287 287.793 55.908 288.148 55.908C288.652 55.908 289.081 55.7913 289.436 55.558C289.8 55.3247 290.197 54.97 290.626 54.494H291.102C290.066 56.2207 288.783 57.084 287.252 57.084ZM287.28 53.5C287.625 53.4813 287.952 53.36 288.26 53.136C288.577 52.912 288.829 52.6273 289.016 52.282C289.212 51.9367 289.31 51.5727 289.31 51.19C289.31 50.8073 289.193 50.616 288.96 50.616C288.624 50.616 288.293 50.91 287.966 51.498C287.649 52.086 287.42 52.7533 287.28 53.5ZM292.681 57.056C291.962 57.056 291.407 56.8647 291.015 56.482C290.632 56.09 290.441 55.4927 290.441 54.69C290.441 53.962 290.59 53.2667 290.889 52.604C291.197 51.9413 291.64 51.4047 292.219 50.994C292.798 50.5833 293.479 50.378 294.263 50.378L294.501 50.392C294.352 50.2147 294.123 49.972 293.815 49.664C293.47 49.328 293.213 49.0433 293.045 48.81C292.877 48.5673 292.793 48.3013 292.793 48.012C292.793 47.6573 292.914 47.396 293.157 47.228C293.4 47.06 293.782 46.976 294.305 46.976H296.433H296.867C297.11 46.976 297.287 46.962 297.399 46.934C297.511 46.906 297.6 46.85 297.665 46.766C297.73 46.6727 297.791 46.5187 297.847 46.304H298.463C298.314 47.032 298.15 47.5733 297.973 47.928C297.796 48.2827 297.562 48.5253 297.273 48.656C296.993 48.7867 296.601 48.852 296.097 48.852H294.753C294.697 48.852 294.65 48.866 294.613 48.894C294.585 48.9127 294.571 48.9547 294.571 49.02C294.571 49.0573 294.65 49.1787 294.809 49.384C295.154 49.804 295.448 50.2567 295.691 50.742C295.934 51.2273 296.055 51.7967 296.055 52.45C296.055 53.1593 295.915 53.8733 295.635 54.592C295.364 55.3013 294.972 55.8893 294.459 56.356C293.946 56.8227 293.353 57.056 292.681 57.056ZM293.213 55.796C293.596 55.796 293.913 55.5627 294.165 55.096C294.417 54.6293 294.599 54.102 294.711 53.514C294.832 52.926 294.893 52.4733 294.893 52.156C294.893 51.8013 294.851 51.5587 294.767 51.428C294.683 51.2973 294.548 51.232 294.361 51.232C293.95 51.232 293.605 51.456 293.325 51.904C293.045 52.352 292.835 52.8607 292.695 53.43C292.555 53.9993 292.485 54.4427 292.485 54.76C292.485 55.1613 292.536 55.4367 292.639 55.586C292.751 55.726 292.942 55.796 293.213 55.796ZM297.157 52.786H299.957L299.719 53.892H296.905L297.157 52.786ZM303.177 60.5C302.729 60.5 302.356 60.3833 302.057 60.15C301.759 59.9167 301.609 59.5807 301.609 59.142C301.609 58.61 301.824 58.1807 302.253 57.854C302.683 57.5367 303.229 57.2707 303.891 57.056L304.059 56.314C303.583 56.8273 303.023 57.084 302.379 57.084C301.847 57.084 301.404 56.902 301.049 56.538C300.695 56.174 300.517 55.6047 300.517 54.83C300.517 54.1393 300.653 53.416 300.923 52.66C301.203 51.8947 301.614 51.2507 302.155 50.728C302.706 50.196 303.359 49.93 304.115 49.93C304.498 49.93 304.783 49.9953 304.969 50.126C305.156 50.2567 305.249 50.4293 305.249 50.644V50.728L305.403 50H307.419L306.033 56.496C306.481 56.3467 306.841 56.1227 307.111 55.824C307.382 55.5253 307.611 55.082 307.797 54.494H308.385C308.133 55.3247 307.793 55.936 307.363 56.328C306.934 56.7107 306.449 56.972 305.907 57.112L305.697 58.12C305.511 59.0253 305.189 59.646 304.731 59.982C304.274 60.3273 303.756 60.5 303.177 60.5ZM303.289 55.726C303.504 55.726 303.723 55.628 303.947 55.432C304.171 55.236 304.325 54.97 304.409 54.634L305.123 51.316C305.123 51.204 305.077 51.092 304.983 50.98C304.89 50.8587 304.745 50.798 304.549 50.798C304.176 50.798 303.84 51.0173 303.541 51.456C303.243 51.8853 303.009 52.408 302.841 53.024C302.673 53.6307 302.589 54.1673 302.589 54.634C302.589 55.1007 302.655 55.3993 302.785 55.53C302.925 55.6607 303.093 55.726 303.289 55.726ZM302.855 59.408C303.014 59.408 303.168 59.3007 303.317 59.086C303.467 58.8713 303.583 58.5633 303.667 58.162L303.751 57.756C302.837 58.092 302.379 58.4887 302.379 58.946C302.379 59.0673 302.421 59.1747 302.505 59.268C302.589 59.3613 302.706 59.408 302.855 59.408ZM309.181 57.084C308.733 57.084 308.369 56.944 308.089 56.664C307.818 56.384 307.683 55.964 307.683 55.404C307.683 55.1707 307.72 54.8673 307.795 54.494L308.747 50H310.763L309.755 54.76C309.727 54.9 309.713 55.0307 309.713 55.152C309.713 55.5347 309.853 55.726 310.133 55.726C310.394 55.726 310.618 55.6187 310.805 55.404C310.992 55.18 311.141 54.8767 311.253 54.494L312.205 50H314.221L313.213 54.76C313.176 54.9 313.157 55.0493 313.157 55.208C313.157 55.3947 313.199 55.53 313.283 55.614C313.376 55.6887 313.526 55.726 313.731 55.726C313.992 55.726 314.216 55.614 314.403 55.39C314.599 55.166 314.753 54.8673 314.865 54.494H315.453C315.108 55.502 314.678 56.188 314.165 56.552C313.661 56.9067 313.152 57.084 312.639 57.084C312.238 57.084 311.916 56.972 311.673 56.748C311.44 56.524 311.3 56.1927 311.253 55.754C310.936 56.2673 310.6 56.6173 310.245 56.804C309.9 56.9907 309.545 57.084 309.181 57.084ZM316.613 60.5C316.165 60.5 315.792 60.3833 315.493 60.15C315.195 59.9167 315.045 59.5807 315.045 59.142C315.045 58.2367 315.778 57.5507 317.243 57.084C317.215 56.0947 316.879 55.6 316.235 55.6H315.801L315.983 54.76H316.389C316.716 54.76 317.01 54.6527 317.271 54.438C317.533 54.2233 317.738 53.934 317.887 53.57C318.037 53.1967 318.111 52.7907 318.111 52.352C318.111 52.0253 318.037 51.7453 317.887 51.512C317.738 51.2693 317.5 51.148 317.173 51.148C316.828 51.148 316.529 51.2973 316.277 51.596C316.025 51.8853 315.825 52.2213 315.675 52.604H315.003C315.302 51.7827 315.675 51.1247 316.123 50.63C316.581 50.126 317.211 49.874 318.013 49.874C318.695 49.874 319.231 50.07 319.623 50.462C320.025 50.854 320.225 51.4 320.225 52.1C320.225 52.66 320.09 53.1687 319.819 53.626C319.558 54.074 319.255 54.438 318.909 54.718C318.564 54.9887 318.279 55.1473 318.055 55.194C318.298 55.278 318.527 55.446 318.741 55.698C318.965 55.95 319.119 56.2487 319.203 56.594C319.735 56.4353 320.151 56.2067 320.449 55.908C320.757 55.6093 321.019 55.138 321.233 54.494H321.821C321.569 55.3433 321.219 55.964 320.771 56.356C320.323 56.748 319.819 57.014 319.259 57.154C319.241 58.1993 318.989 59.016 318.503 59.604C318.027 60.2013 317.397 60.5 316.613 60.5ZM316.291 59.408C316.487 59.408 316.674 59.2447 316.851 58.918C317.029 58.5913 317.145 58.204 317.201 57.756C316.277 58.0733 315.815 58.47 315.815 58.946C315.815 59.086 315.853 59.198 315.927 59.282C316.011 59.366 316.133 59.408 316.291 59.408ZM322.914 57.084C322.382 57.084 321.939 56.902 321.584 56.538C321.23 56.174 321.052 55.6047 321.052 54.83C321.052 54.1393 321.188 53.416 321.458 52.66C321.738 51.8947 322.149 51.2507 322.69 50.728C323.241 50.196 323.894 49.93 324.65 49.93C325.033 49.93 325.318 49.9953 325.504 50.126C325.691 50.2567 325.784 50.4293 325.784 50.644V50.742L325.938 50H327.954L326.946 54.76C326.909 54.9 326.89 55.0493 326.89 55.208C326.89 55.6093 327.082 55.81 327.464 55.81C327.726 55.81 327.95 55.6887 328.136 55.446C328.332 55.2033 328.486 54.886 328.598 54.494H329.186C328.841 55.502 328.412 56.188 327.898 56.552C327.394 56.9067 326.886 57.084 326.372 57.084C325.98 57.084 325.663 56.9767 325.42 56.762C325.187 56.538 325.047 56.216 325 55.796C324.73 56.1787 324.426 56.4913 324.09 56.734C323.764 56.9673 323.372 57.084 322.914 57.084ZM323.824 55.726C324.058 55.726 324.286 55.6187 324.51 55.404C324.744 55.18 324.902 54.8767 324.986 54.494L325.658 51.33C325.658 51.2087 325.612 51.092 325.518 50.98C325.425 50.8587 325.28 50.798 325.084 50.798C324.711 50.798 324.375 51.0173 324.076 51.456C323.778 51.8853 323.544 52.408 323.376 53.024C323.208 53.6307 323.124 54.1673 323.124 54.634C323.124 55.1007 323.19 55.3993 323.32 55.53C323.46 55.6607 323.628 55.726 323.824 55.726ZM329.99 57.084C329.542 57.084 329.178 56.944 328.898 56.664C328.627 56.384 328.492 55.964 328.492 55.404C328.492 55.1707 328.529 54.8673 328.604 54.494L329.556 50H331.572L330.564 54.76C330.536 54.9 330.522 55.0307 330.522 55.152C330.522 55.5347 330.662 55.726 330.942 55.726C331.203 55.726 331.427 55.6187 331.614 55.404C331.8 55.18 331.95 54.8767 332.062 54.494L333.014 50H335.03L334.022 54.76C333.984 54.9 333.966 55.0493 333.966 55.208C333.966 55.3947 334.008 55.53 334.092 55.614C334.185 55.6887 334.334 55.726 334.54 55.726C334.801 55.726 335.025 55.614 335.212 55.39C335.408 55.166 335.562 54.8673 335.674 54.494H336.262C335.916 55.502 335.487 56.188 334.974 56.552C334.47 56.9067 333.961 57.084 333.448 57.084C333.046 57.084 332.724 56.972 332.482 56.748C332.248 56.524 332.108 56.1927 332.062 55.754C331.744 56.2673 331.408 56.6173 331.054 56.804C330.708 56.9907 330.354 57.084 329.99 57.084ZM332.16 49.314C331.581 49.314 331.133 49.2067 330.816 48.992C330.498 48.7773 330.34 48.4833 330.34 48.11C330.34 47.802 330.424 47.5547 330.592 47.368C330.769 47.1813 330.998 47.088 331.278 47.088C331.548 47.088 331.758 47.1533 331.908 47.284C332.066 47.4147 332.146 47.6013 332.146 47.844C332.146 48.1427 332.034 48.3667 331.81 48.516C331.931 48.5533 332.118 48.572 332.37 48.572C332.79 48.572 333.196 48.446 333.588 48.194C333.989 47.9327 334.302 47.5127 334.526 46.934H335.114C334.815 47.802 334.418 48.418 333.924 48.782C333.429 49.1367 332.841 49.314 332.16 49.314ZM340.516 57.084C340.105 57.084 339.769 56.944 339.508 56.664C339.256 56.384 339.13 55.964 339.13 55.404C339.13 55.1053 339.228 54.5173 339.424 53.64H337.87L337.156 57H335.14L336.624 50H338.64L338.038 52.8H339.606L340.236 50H342.112L341.09 54.76C341.053 54.9 341.034 55.0307 341.034 55.152C341.034 55.5347 341.225 55.726 341.608 55.726C341.776 55.726 341.925 55.698 342.056 55.642C342.019 56.1087 341.851 56.468 341.552 56.72C341.263 56.9627 340.917 57.084 340.516 57.084Z" fill="white"/>
</svg>
